<svg width="20" height="20" viewBox="0 0 20 20" fill="none" xmlns="http://www.w3.org/2000/svg">
<path d="M19.6 10.227c0-.68-.06-1.36-.19-2.02H10v3.82h5.39a4.61 4.61 0 0 1-2 3.03v2.51h3.22c1.88-1.73 2.99-4.29 2.99-7.34Z" fill="#4285F4"/>
<path d="M10 20c2.7 0 4.97-.89 6.63-2.42l-3.22-2.51c-.9.6-2.06.95-3.41.95-2.62 0-4.84-1.77-5.63-4.15H1.06v2.6A10.002 10.002 0 0 0 10 20Z" fill="#34A853"/>
<path d="M4.37 11.87A5.99 5.99 0 0 1 3.97 10c0-.65.11-1.28.4-1.87V5.53H1.06A9.99 9.99 0 0 0 0 10c0 1.6.38 3.12 1.06 4.47l3.31-2.6Z" fill="#FBBC05"/>
<path d="M10 3.96c1.47 0 2.79.51 3.83 1.52l2.86-2.86C14.96 1 12.7 0 10 0 6.1 0 2.77 2.24 1.06 5.53l3.31 2.6C5.17 5.75 7.39 3.96 10 3.96Z" fill="#EA4335"/>
</svg>
